RBDS010runT25_grf
version=1
nRows=12
nColumns=19
inDegrees=no
endheader
time	ground_force_r_vx	ground_force_r_vy	ground_force_r_vz	ground_force_r_px	ground_force_r_py	ground_force_r_pz	ground_force_r_mx	ground_force_r_my	ground_force_r_mz	ground_force_l_vx	ground_force_l_vy	ground_force_l_vz	ground_force_l_px	ground_force_l_py	ground_force_l_pz	ground_force_l_mx	ground_force_l_my	ground_force_l_mz
      0.00000000	      0.00000000	      0.00000000	      0.00000000	      0.00000000	      0.00000000	      0.00000000	      0.00000000	      0.00000000	      0.00000000	     65.76668483	   1248.78602949	      1.43699742	      2.08309279	      0.00000000	      0.94508465	      0.00000000	     28.11366458	      0.00000000
      0.00100000	      0.00000000	      0.00000000	      0.00000000	      0.00000000	      0.00000000	      0.00000000	      0.00000000	      0.00000000	      0.00000000	     67.92340963	   1240.35134695	      0.45702399	      2.08156755	      0.00000000	      0.94515322	      0.00000000	     28.09312829	      0.00000000
      0.00200000	      0.00000000	      0.00000000	      0.00000000	      0.00000000	      0.00000000	      0.00000000	      0.00000000	      0.00000000	      0.00000000	     70.08013443	   1231.91666441	     -0.52294944	      2.08004230	      0.00000000	      0.94522179	     -0.00000000	     28.07259201	      0.00000000
      0.00300000	      0.00000000	      0.00000000	      0.00000000	      0.00000000	      0.00000000	      0.00000000	      0.00000000	      0.00000000	      0.00000000	     72.23685923	   1223.48198187	     -1.50292286	      2.07851705	      0.00000000	      0.94529035	     -0.00000000	     28.05205572	      0.00000000
      0.00400000	      0.00000000	      0.00000000	      0.00000000	      0.00000000	      0.00000000	      0.00000000	      0.00000000	      0.00000000	      0.00000000	     74.39179605	   1215.01434467	     -2.48212375	      2.07699517	      0.00000000	      0.94536315	     -0.00000000	     28.03009244	      0.00000000
      0.00500000	      0.00000000	      0.00000000	      0.00000000	      0.00000000	      0.00000000	      0.00000000	      0.00000000	      0.00000000	      0.00000000	     76.54583889	   1206.53023015	     -3.46093838	      2.07547498	      0.00000000	      0.94543806	     -0.00000000	     28.00741565	      0.00000000
      0.00600000	      0.00000000	      0.00000000	      0.00000000	      0.00000000	      0.00000000	      0.00000000	      0.00000000	      0.00000000	      0.00000000	     78.69988172	   1198.04611562	     -4.43975300	      2.07395479	      0.00000000	      0.94551296	     -0.00000000	     27.98473887	      0.00000000
      0.00700000	      0.00000000	      0.00000000	      0.00000000	      0.00000000	      0.00000000	      0.00000000	      0.00000000	      0.00000000	      0.00000000	     80.84569780	   1189.53001924	     -5.41452848	      2.07243411	      0.00000000	      0.94559006	     -0.00000000	     27.96026423	      0.00000000
      0.00800000	      0.00000000	      0.00000000	      0.00000000	      0.00000000	      0.00000000	      0.00000000	      0.00000000	      0.00000000	      0.00000000	     82.97506035	   1180.94995916	     -6.38122570	      2.07091245	      0.00000000	      0.94567155	     -0.00000000	     27.93219390	      0.00000000
      0.00900000	      0.00000000	      0.00000000	      0.00000000	      0.00000000	      0.00000000	      0.00000000	      0.00000000	      0.00000000	      0.00000000	     85.10442291	   1172.36989909	     -7.34792291	      2.06939080	      0.00000000	      0.94575304	     -0.00000000	     27.90412357	      0.00000000
      0.01000000	      0.00000000	      0.00000000	      0.00000000	      0.00000000	      0.00000000	      0.00000000	      0.00000000	      0.00000000	      0.00000000	     87.23378546	   1163.78983901	     -8.31462013	      2.06786914	      0.00000000	      0.94583452	     -0.00000000	     27.87605324	      0.00000000
      0.01100000	      0.00000000	      0.00000000	      0.00000000	      0.00000000	      0.00000000	      0.00000000	      0.00000000	      0.00000000	      0.00000000	     89.31594395	   1155.06359973	     -9.25876411	      2.06633896	      0.00000000	      0.94592259	     -0.00000000	     27.83970729	      0.00000000
